ply
format ascii 1.0
comment RebarFusion Phase 10 reconstruction mesh
element vertex 494
property float x
property float y
property float z
element face 912
property list uchar int vertex_indices
end_header
89782.2583 2690.3607 46.0000
89781.4544 2690.3607 43.0000
89779.2583 2690.3607 40.8038
89776.2583 2690.3607 40.0000
89773.2583 2690.3607 40.8038
89771.0621 2690.3607 43.0000
89770.2583 2690.3607 46.0000
89771.0621 2690.3607 49.0000
89773.2583 2690.3607 51.1962
89776.2583 2690.3607 52.0000
89779.2583 2690.3607 51.1962
89781.4544 2690.3607 49.0000
89782.2583 4655.2023 46.0000
89781.4544 4655.2023 43.0000
89779.2583 4655.2023 40.8038
89776.2583 4655.2023 40.0000
89773.2583 4655.2023 40.8038
89771.0621 4655.2023 43.0000
89770.2583 4655.2023 46.0000
89771.0621 4655.2023 49.0000
89773.2583 4655.2023 51.1962
89776.2583 4655.2023 52.0000
89779.2583 4655.2023 51.1962
89781.4544 4655.2023 49.0000
89776.2583 2690.3607 46.0000
89776.2583 4655.2023 46.0000
68329.1302 24414.4128 44.0000
68328.5943 24414.4128 42.0000
68327.1302 24414.4128 40.5359
68325.1302 24414.4128 40.0000
68323.1302 24414.4128 40.5359
68321.6661 24414.4128 42.0000
68321.1302 24414.4128 44.0000
68321.6661 24414.4128 46.0000
68323.1302 24414.4128 47.4641
68325.1302 24414.4128 48.0000
68327.1302 24414.4128 47.4641
68328.5943 24414.4128 46.0000
68329.1302 25262.4128 44.0000
68328.5943 25262.4128 42.0000
68327.1302 25262.4128 40.5359
68325.1302 25262.4128 40.0000
68323.1302 25262.4128 40.5359
68321.6661 25262.4128 42.0000
68321.1302 25262.4128 44.0000
68321.6661 25262.4128 46.0000
68323.1302 25262.4128 47.4641
68325.1302 25262.4128 48.0000
68327.1302 25262.4128 47.4641
68328.5943 25262.4128 46.0000
68325.1302 24414.4128 44.0000
68325.1302 25262.4128 44.0000
68133.6341 24414.4128 44.0000
68133.0982 24414.4128 42.0000
68131.6341 24414.4128 40.5359
68129.6341 24414.4128 40.0000
68127.6341 24414.4128 40.5359
68126.1700 24414.4128 42.0000
68125.6341 24414.4128 44.0000
68126.1700 24414.4128 46.0000
68127.6341 24414.4128 47.4641
68129.6341 24414.4128 48.0000
68131.6341 24414.4128 47.4641
68133.0982 24414.4128 46.0000
68133.6341 25262.4128 44.0000
68133.0982 25262.4128 42.0000
68131.6341 25262.4128 40.5359
68129.6341 25262.4128 40.0000
68127.6341 25262.4128 40.5359
68126.1700 25262.4128 42.0000
68125.6341 25262.4128 44.0000
68126.1700 25262.4128 46.0000
68127.6341 25262.4128 47.4641
68129.6341 25262.4128 48.0000
68131.6341 25262.4128 47.4641
68133.0982 25262.4128 46.0000
68129.6341 24414.4128 44.0000
68129.6341 25262.4128 44.0000
67938.1380 24414.4128 44.0000
67937.6021 24414.4128 42.0000
67936.1380 24414.4128 40.5359
67934.1380 24414.4128 40.0000
67932.1380 24414.4128 40.5359
67930.6739 24414.4128 42.0000
67930.1380 24414.4128 44.0000
67930.6739 24414.4128 46.0000
67932.1380 24414.4128 47.4641
67934.1380 24414.4128 48.0000
67936.1380 24414.4128 47.4641
67937.6021 24414.4128 46.0000
67938.1380 25262.4128 44.0000
67937.6021 25262.4128 42.0000
67936.1380 25262.4128 40.5359
67934.1380 25262.4128 40.0000
67932.1380 25262.4128 40.5359
67930.6739 25262.4128 42.0000
67930.1380 25262.4128 44.0000
67930.6739 25262.4128 46.0000
67932.1380 25262.4128 47.4641
67934.1380 25262.4128 48.0000
67936.1380 25262.4128 47.4641
67937.6021 25262.4128 46.0000
67934.1380 24414.4128 44.0000
67934.1380 25262.4128 44.0000
67742.6419 24414.4128 44.0000
67742.1060 24414.4128 42.0000
67740.6419 24414.4128 40.5359
67738.6419 24414.4128 40.0000
67736.6419 24414.4128 40.5359
67735.1778 24414.4128 42.0000
67734.6419 24414.4128 44.0000
67735.1778 24414.4128 46.0000
67736.6419 24414.4128 47.4641
67738.6419 24414.4128 48.0000
67740.6419 24414.4128 47.4641
67742.1060 24414.4128 46.0000
67742.6419 25262.4128 44.0000
67742.1060 25262.4128 42.0000
67740.6419 25262.4128 40.5359
67738.6419 25262.4128 40.0000
67736.6419 25262.4128 40.5359
67735.1778 25262.4128 42.0000
67734.6419 25262.4128 44.0000
67735.1778 25262.4128 46.0000
67736.6419 25262.4128 47.4641
67738.6419 25262.4128 48.0000
67740.6419 25262.4128 47.4641
67742.1060 25262.4128 46.0000
67738.6419 24414.4128 44.0000
67738.6419 25262.4128 44.0000
67547.1458 24414.4128 44.0000
67546.6099 24414.4128 42.0000
67545.1458 24414.4128 40.5359
67543.1458 24414.4128 40.0000
67541.1458 24414.4128 40.5359
67539.6816 24414.4128 42.0000
67539.1458 24414.4128 44.0000
67539.6816 24414.4128 46.0000
67541.1458 24414.4128 47.4641
67543.1458 24414.4128 48.0000
67545.1458 24414.4128 47.4641
67546.6099 24414.4128 46.0000
67547.1458 25262.4128 44.0000
67546.6099 25262.4128 42.0000
67545.1458 25262.4128 40.5359
67543.1458 25262.4128 40.0000
67541.1458 25262.4128 40.5359
67539.6816 25262.4128 42.0000
67539.1458 25262.4128 44.0000
67539.6816 25262.4128 46.0000
67541.1458 25262.4128 47.4641
67543.1458 25262.4128 48.0000
67545.1458 25262.4128 47.4641
67546.6099 25262.4128 46.0000
67543.1458 24414.4128 44.0000
67543.1458 25262.4128 44.0000
67351.6496 24414.4128 44.0000
67351.1137 24414.4128 42.0000
67349.6496 24414.4128 40.5359
67347.6496 24414.4128 40.0000
67345.6496 24414.4128 40.5359
67344.1855 24414.4128 42.0000
67343.6496 24414.4128 44.0000
67344.1855 24414.4128 46.0000
67345.6496 24414.4128 47.4641
67347.6496 24414.4128 48.0000
67349.6496 24414.4128 47.4641
67351.1137 24414.4128 46.0000
67351.6496 25262.4128 44.0000
67351.1137 25262.4128 42.0000
67349.6496 25262.4128 40.5359
67347.6496 25262.4128 40.0000
67345.6496 25262.4128 40.5359
67344.1855 25262.4128 42.0000
67343.6496 25262.4128 44.0000
67344.1855 25262.4128 46.0000
67345.6496 25262.4128 47.4641
67347.6496 25262.4128 48.0000
67349.6496 25262.4128 47.4641
67351.1137 25262.4128 46.0000
67347.6496 24414.4128 44.0000
67347.6496 25262.4128 44.0000
67156.1535 24414.4128 44.0000
67155.6176 24414.4128 42.0000
67154.1535 24414.4128 40.5359
67152.1535 24414.4128 40.0000
67150.1535 24414.4128 40.5359
67148.6894 24414.4128 42.0000
67148.1535 24414.4128 44.0000
67148.6894 24414.4128 46.0000
67150.1535 24414.4128 47.4641
67152.1535 24414.4128 48.0000
67154.1535 24414.4128 47.4641
67155.6176 24414.4128 46.0000
67156.1535 25262.4128 44.0000
67155.6176 25262.4128 42.0000
67154.1535 25262.4128 40.5359
67152.1535 25262.4128 40.0000
67150.1535 25262.4128 40.5359
67148.6894 25262.4128 42.0000
67148.1535 25262.4128 44.0000
67148.6894 25262.4128 46.0000
67150.1535 25262.4128 47.4641
67152.1535 25262.4128 48.0000
67154.1535 25262.4128 47.4641
67155.6176 25262.4128 46.0000
67152.1535 24414.4128 44.0000
67152.1535 25262.4128 44.0000
66960.6574 24414.4128 44.0000
66960.1215 24414.4128 42.0000
66958.6574 24414.4128 40.5359
66956.6574 24414.4128 40.0000
66954.6574 24414.4128 40.5359
66953.1933 24414.4128 42.0000
66952.6574 24414.4128 44.0000
66953.1933 24414.4128 46.0000
66954.6574 24414.4128 47.4641
66956.6574 24414.4128 48.0000
66958.6574 24414.4128 47.4641
66960.1215 24414.4128 46.0000
66960.6574 25262.4128 44.0000
66960.1215 25262.4128 42.0000
66958.6574 25262.4128 40.5359
66956.6574 25262.4128 40.0000
66954.6574 25262.4128 40.5359
66953.1933 25262.4128 42.0000
66952.6574 25262.4128 44.0000
66953.1933 25262.4128 46.0000
66954.6574 25262.4128 47.4641
66956.6574 25262.4128 48.0000
66958.6574 25262.4128 47.4641
66960.1215 25262.4128 46.0000
66956.6574 24414.4128 44.0000
66956.6574 25262.4128 44.0000
66765.1613 24414.4128 44.0000
66764.6254 24414.4128 42.0000
66763.1613 24414.4128 40.5359
66761.1613 24414.4128 40.0000
66759.1613 24414.4128 40.5359
66757.6972 24414.4128 42.0000
66757.1613 24414.4128 44.0000
66757.6972 24414.4128 46.0000
66759.1613 24414.4128 47.4641
66761.1613 24414.4128 48.0000
66763.1613 24414.4128 47.4641
66764.6254 24414.4128 46.0000
66765.1613 25262.4128 44.0000
66764.6254 25262.4128 42.0000
66763.1613 25262.4128 40.5359
66761.1613 25262.4128 40.0000
66759.1613 25262.4128 40.5359
66757.6972 25262.4128 42.0000
66757.1613 25262.4128 44.0000
66757.6972 25262.4128 46.0000
66759.1613 25262.4128 47.4641
66761.1613 25262.4128 48.0000
66763.1613 25262.4128 47.4641
66764.6254 25262.4128 46.0000
66761.1613 24414.4128 44.0000
66761.1613 25262.4128 44.0000
66569.6652 24414.4128 44.0000
66569.1293 24414.4128 42.0000
66567.6652 24414.4128 40.5359
66565.6652 24414.4128 40.0000
66563.6652 24414.4128 40.5359
66562.2011 24414.4128 42.0000
66561.6652 24414.4128 44.0000
66562.2011 24414.4128 46.0000
66563.6652 24414.4128 47.4641
66565.6652 24414.4128 48.0000
66567.6652 24414.4128 47.4641
66569.1293 24414.4128 46.0000
66569.6652 25262.4128 44.0000
66569.1293 25262.4128 42.0000
66567.6652 25262.4128 40.5359
66565.6652 25262.4128 40.0000
66563.6652 25262.4128 40.5359
66562.2011 25262.4128 42.0000
66561.6652 25262.4128 44.0000
66562.2011 25262.4128 46.0000
66563.6652 25262.4128 47.4641
66565.6652 25262.4128 48.0000
66567.6652 25262.4128 47.4641
66569.1293 25262.4128 46.0000
66565.6652 24414.4128 44.0000
66565.6652 25262.4128 44.0000
66374.1691 24414.4128 44.0000
66373.6332 24414.4128 42.0000
66372.1691 24414.4128 40.5359
66370.1691 24414.4128 40.0000
66368.1691 24414.4128 40.5359
66366.7050 24414.4128 42.0000
66366.1691 24414.4128 44.0000
66366.7050 24414.4128 46.0000
66368.1691 24414.4128 47.4641
66370.1691 24414.4128 48.0000
66372.1691 24414.4128 47.4641
66373.6332 24414.4128 46.0000
66374.1691 25262.4128 44.0000
66373.6332 25262.4128 42.0000
66372.1691 25262.4128 40.5359
66370.1691 25262.4128 40.0000
66368.1691 25262.4128 40.5359
66366.7050 25262.4128 42.0000
66366.1691 25262.4128 44.0000
66366.7050 25262.4128 46.0000
66368.1691 25262.4128 47.4641
66370.1691 25262.4128 48.0000
66372.1691 25262.4128 47.4641
66373.6332 25262.4128 46.0000
66370.1691 24414.4128 44.0000
66370.1691 25262.4128 44.0000
66178.6730 24414.4128 44.0000
66178.1371 24414.4128 42.0000
66176.6730 24414.4128 40.5359
66174.6730 24414.4128 40.0000
66172.6730 24414.4128 40.5359
66171.2089 24414.4128 42.0000
66170.6730 24414.4128 44.0000
66171.2089 24414.4128 46.0000
66172.6730 24414.4128 47.4641
66174.6730 24414.4128 48.0000
66176.6730 24414.4128 47.4641
66178.1371 24414.4128 46.0000
66178.6730 25262.4128 44.0000
66178.1371 25262.4128 42.0000
66176.6730 25262.4128 40.5359
66174.6730 25262.4128 40.0000
66172.6730 25262.4128 40.5359
66171.2089 25262.4128 42.0000
66170.6730 25262.4128 44.0000
66171.2089 25262.4128 46.0000
66172.6730 25262.4128 47.4641
66174.6730 25262.4128 48.0000
66176.6730 25262.4128 47.4641
66178.1371 25262.4128 46.0000
66174.6730 24414.4128 44.0000
66174.6730 25262.4128 44.0000
65983.1769 24414.4128 44.0000
65982.6410 24414.4128 42.0000
65981.1769 24414.4128 40.5359
65979.1769 24414.4128 40.0000
65977.1769 24414.4128 40.5359
65975.7127 24414.4128 42.0000
65975.1769 24414.4128 44.0000
65975.7127 24414.4128 46.0000
65977.1769 24414.4128 47.4641
65979.1769 24414.4128 48.0000
65981.1769 24414.4128 47.4641
65982.6410 24414.4128 46.0000
65983.1769 25262.4128 44.0000
65982.6410 25262.4128 42.0000
65981.1769 25262.4128 40.5359
65979.1769 25262.4128 40.0000
65977.1769 25262.4128 40.5359
65975.7127 25262.4128 42.0000
65975.1769 25262.4128 44.0000
65975.7127 25262.4128 46.0000
65977.1769 25262.4128 47.4641
65979.1769 25262.4128 48.0000
65981.1769 25262.4128 47.4641
65982.6410 25262.4128 46.0000
65979.1769 24414.4128 44.0000
65979.1769 25262.4128 44.0000
65787.6807 24414.4128 44.0000
65787.1448 24414.4128 42.0000
65785.6807 24414.4128 40.5359
65783.6807 24414.4128 40.0000
65781.6807 24414.4128 40.5359
65780.2166 24414.4128 42.0000
65779.6807 24414.4128 44.0000
65780.2166 24414.4128 46.0000
65781.6807 24414.4128 47.4641
65783.6807 24414.4128 48.0000
65785.6807 24414.4128 47.4641
65787.1448 24414.4128 46.0000
65787.6807 25262.4128 44.0000
65787.1448 25262.4128 42.0000
65785.6807 25262.4128 40.5359
65783.6807 25262.4128 40.0000
65781.6807 25262.4128 40.5359
65780.2166 25262.4128 42.0000
65779.6807 25262.4128 44.0000
65780.2166 25262.4128 46.0000
65781.6807 25262.4128 47.4641
65783.6807 25262.4128 48.0000
65785.6807 25262.4128 47.4641
65787.1448 25262.4128 46.0000
65783.6807 24414.4128 44.0000
65783.6807 25262.4128 44.0000
65592.1846 24414.4128 44.0000
65591.6487 24414.4128 42.0000
65590.1846 24414.4128 40.5359
65588.1846 24414.4128 40.0000
65586.1846 24414.4128 40.5359
65584.7205 24414.4128 42.0000
65584.1846 24414.4128 44.0000
65584.7205 24414.4128 46.0000
65586.1846 24414.4128 47.4641
65588.1846 24414.4128 48.0000
65590.1846 24414.4128 47.4641
65591.6487 24414.4128 46.0000
65592.1846 25262.4128 44.0000
65591.6487 25262.4128 42.0000
65590.1846 25262.4128 40.5359
65588.1846 25262.4128 40.0000
65586.1846 25262.4128 40.5359
65584.7205 25262.4128 42.0000
65584.1846 25262.4128 44.0000
65584.7205 25262.4128 46.0000
65586.1846 25262.4128 47.4641
65588.1846 25262.4128 48.0000
65590.1846 25262.4128 47.4641
65591.6487 25262.4128 46.0000
65588.1846 24414.4128 44.0000
65588.1846 25262.4128 44.0000
65396.6885 24414.4128 44.0000
65396.1526 24414.4128 42.0000
65394.6885 24414.4128 40.5359
65392.6885 24414.4128 40.0000
65390.6885 24414.4128 40.5359
65389.2244 24414.4128 42.0000
65388.6885 24414.4128 44.0000
65389.2244 24414.4128 46.0000
65390.6885 24414.4128 47.4641
65392.6885 24414.4128 48.0000
65394.6885 24414.4128 47.4641
65396.1526 24414.4128 46.0000
65396.6885 25262.4128 44.0000
65396.1526 25262.4128 42.0000
65394.6885 25262.4128 40.5359
65392.6885 25262.4128 40.0000
65390.6885 25262.4128 40.5359
65389.2244 25262.4128 42.0000
65388.6885 25262.4128 44.0000
65389.2244 25262.4128 46.0000
65390.6885 25262.4128 47.4641
65392.6885 25262.4128 48.0000
65394.6885 25262.4128 47.4641
65396.1526 25262.4128 46.0000
65392.6885 24414.4128 44.0000
65392.6885 25262.4128 44.0000
65201.1924 24414.4128 44.0000
65200.6565 24414.4128 42.0000
65199.1924 24414.4128 40.5359
65197.1924 24414.4128 40.0000
65195.1924 24414.4128 40.5359
65193.7283 24414.4128 42.0000
65193.1924 24414.4128 44.0000
65193.7283 24414.4128 46.0000
65195.1924 24414.4128 47.4641
65197.1924 24414.4128 48.0000
65199.1924 24414.4128 47.4641
65200.6565 24414.4128 46.0000
65201.1924 25262.4128 44.0000
65200.6565 25262.4128 42.0000
65199.1924 25262.4128 40.5359
65197.1924 25262.4128 40.0000
65195.1924 25262.4128 40.5359
65193.7283 25262.4128 42.0000
65193.1924 25262.4128 44.0000
65193.7283 25262.4128 46.0000
65195.1924 25262.4128 47.4641
65197.1924 25262.4128 48.0000
65199.1924 25262.4128 47.4641
65200.6565 25262.4128 46.0000
65197.1924 24414.4128 44.0000
65197.1924 25262.4128 44.0000
65005.6963 24414.4128 44.0000
65005.1604 24414.4128 42.0000
65003.6963 24414.4128 40.5359
65001.6963 24414.4128 40.0000
64999.6963 24414.4128 40.5359
64998.2322 24414.4128 42.0000
64997.6963 24414.4128 44.0000
64998.2322 24414.4128 46.0000
64999.6963 24414.4128 47.4641
65001.6963 24414.4128 48.0000
65003.6963 24414.4128 47.4641
65005.1604 24414.4128 46.0000
65005.6963 25262.4128 44.0000
65005.1604 25262.4128 42.0000
65003.6963 25262.4128 40.5359
65001.6963 25262.4128 40.0000
64999.6963 25262.4128 40.5359
64998.2322 25262.4128 42.0000
64997.6963 25262.4128 44.0000
64998.2322 25262.4128 46.0000
64999.6963 25262.4128 47.4641
65001.6963 25262.4128 48.0000
65003.6963 25262.4128 47.4641
65005.1604 25262.4128 46.0000
65001.6963 24414.4128 44.0000
65001.6963 25262.4128 44.0000
3 0 12 1
3 1 12 13
3 1 13 2
3 2 13 14
3 2 14 3
3 3 14 15
3 3 15 4
3 4 15 16
3 4 16 5
3 5 16 17
3 5 17 6
3 6 17 18
3 6 18 7
3 7 18 19
3 7 19 8
3 8 19 20
3 8 20 9
3 9 20 21
3 9 21 10
3 10 21 22
3 10 22 11
3 11 22 23
3 11 23 0
3 0 23 12
3 24 1 0
3 25 12 13
3 24 2 1
3 25 13 14
3 24 3 2
3 25 14 15
3 24 4 3
3 25 15 16
3 24 5 4
3 25 16 17
3 24 6 5
3 25 17 18
3 24 7 6
3 25 18 19
3 24 8 7
3 25 19 20
3 24 9 8
3 25 20 21
3 24 10 9
3 25 21 22
3 24 11 10
3 25 22 23
3 24 0 11
3 25 23 12
3 26 38 27
3 27 38 39
3 27 39 28
3 28 39 40
3 28 40 29
3 29 40 41
3 29 41 30
3 30 41 42
3 30 42 31
3 31 42 43
3 31 43 32
3 32 43 44
3 32 44 33
3 33 44 45
3 33 45 34
3 34 45 46
3 34 46 35
3 35 46 47
3 35 47 36
3 36 47 48
3 36 48 37
3 37 48 49
3 37 49 26
3 26 49 38
3 50 27 26
3 51 38 39
3 50 28 27
3 51 39 40
3 50 29 28
3 51 40 41
3 50 30 29
3 51 41 42
3 50 31 30
3 51 42 43
3 50 32 31
3 51 43 44
3 50 33 32
3 51 44 45
3 50 34 33
3 51 45 46
3 50 35 34
3 51 46 47
3 50 36 35
3 51 47 48
3 50 37 36
3 51 48 49
3 50 26 37
3 51 49 38
3 52 64 53
3 53 64 65
3 53 65 54
3 54 65 66
3 54 66 55
3 55 66 67
3 55 67 56
3 56 67 68
3 56 68 57
3 57 68 69
3 57 69 58
3 58 69 70
3 58 70 59
3 59 70 71
3 59 71 60
3 60 71 72
3 60 72 61
3 61 72 73
3 61 73 62
3 62 73 74
3 62 74 63
3 63 74 75
3 63 75 52
3 52 75 64
3 76 53 52
3 77 64 65
3 76 54 53
3 77 65 66
3 76 55 54
3 77 66 67
3 76 56 55
3 77 67 68
3 76 57 56
3 77 68 69
3 76 58 57
3 77 69 70
3 76 59 58
3 77 70 71
3 76 60 59
3 77 71 72
3 76 61 60
3 77 72 73
3 76 62 61
3 77 73 74
3 76 63 62
3 77 74 75
3 76 52 63
3 77 75 64
3 78 90 79
3 79 90 91
3 79 91 80
3 80 91 92
3 80 92 81
3 81 92 93
3 81 93 82
3 82 93 94
3 82 94 83
3 83 94 95
3 83 95 84
3 84 95 96
3 84 96 85
3 85 96 97
3 85 97 86
3 86 97 98
3 86 98 87
3 87 98 99
3 87 99 88
3 88 99 100
3 88 100 89
3 89 100 101
3 89 101 78
3 78 101 90
3 102 79 78
3 103 90 91
3 102 80 79
3 103 91 92
3 102 81 80
3 103 92 93
3 102 82 81
3 103 93 94
3 102 83 82
3 103 94 95
3 102 84 83
3 103 95 96
3 102 85 84
3 103 96 97
3 102 86 85
3 103 97 98
3 102 87 86
3 103 98 99
3 102 88 87
3 103 99 100
3 102 89 88
3 103 100 101
3 102 78 89
3 103 101 90
3 104 116 105
3 105 116 117
3 105 117 106
3 106 117 118
3 106 118 107
3 107 118 119
3 107 119 108
3 108 119 120
3 108 120 109
3 109 120 121
3 109 121 110
3 110 121 122
3 110 122 111
3 111 122 123
3 111 123 112
3 112 123 124
3 112 124 113
3 113 124 125
3 113 125 114
3 114 125 126
3 114 126 115
3 115 126 127
3 115 127 104
3 104 127 116
3 128 105 104
3 129 116 117
3 128 106 105
3 129 117 118
3 128 107 106
3 129 118 119
3 128 108 107
3 129 119 120
3 128 109 108
3 129 120 121
3 128 110 109
3 129 121 122
3 128 111 110
3 129 122 123
3 128 112 111
3 129 123 124
3 128 113 112
3 129 124 125
3 128 114 113
3 129 125 126
3 128 115 114
3 129 126 127
3 128 104 115
3 129 127 116
3 130 142 131
3 131 142 143
3 131 143 132
3 132 143 144
3 132 144 133
3 133 144 145
3 133 145 134
3 134 145 146
3 134 146 135
3 135 146 147
3 135 147 136
3 136 147 148
3 136 148 137
3 137 148 149
3 137 149 138
3 138 149 150
3 138 150 139
3 139 150 151
3 139 151 140
3 140 151 152
3 140 152 141
3 141 152 153
3 141 153 130
3 130 153 142
3 154 131 130
3 155 142 143
3 154 132 131
3 155 143 144
3 154 133 132
3 155 144 145
3 154 134 133
3 155 145 146
3 154 135 134
3 155 146 147
3 154 136 135
3 155 147 148
3 154 137 136
3 155 148 149
3 154 138 137
3 155 149 150
3 154 139 138
3 155 150 151
3 154 140 139
3 155 151 152
3 154 141 140
3 155 152 153
3 154 130 141
3 155 153 142
3 156 168 157
3 157 168 169
3 157 169 158
3 158 169 170
3 158 170 159
3 159 170 171
3 159 171 160
3 160 171 172
3 160 172 161
3 161 172 173
3 161 173 162
3 162 173 174
3 162 174 163
3 163 174 175
3 163 175 164
3 164 175 176
3 164 176 165
3 165 176 177
3 165 177 166
3 166 177 178
3 166 178 167
3 167 178 179
3 167 179 156
3 156 179 168
3 180 157 156
3 181 168 169
3 180 158 157
3 181 169 170
3 180 159 158
3 181 170 171
3 180 160 159
3 181 171 172
3 180 161 160
3 181 172 173
3 180 162 161
3 181 173 174
3 180 163 162
3 181 174 175
3 180 164 163
3 181 175 176
3 180 165 164
3 181 176 177
3 180 166 165
3 181 177 178
3 180 167 166
3 181 178 179
3 180 156 167
3 181 179 168
3 182 194 183
3 183 194 195
3 183 195 184
3 184 195 196
3 184 196 185
3 185 196 197
3 185 197 186
3 186 197 198
3 186 198 187
3 187 198 199
3 187 199 188
3 188 199 200
3 188 200 189
3 189 200 201
3 189 201 190
3 190 201 202
3 190 202 191
3 191 202 203
3 191 203 192
3 192 203 204
3 192 204 193
3 193 204 205
3 193 205 182
3 182 205 194
3 206 183 182
3 207 194 195
3 206 184 183
3 207 195 196
3 206 185 184
3 207 196 197
3 206 186 185
3 207 197 198
3 206 187 186
3 207 198 199
3 206 188 187
3 207 199 200
3 206 189 188
3 207 200 201
3 206 190 189
3 207 201 202
3 206 191 190
3 207 202 203
3 206 192 191
3 207 203 204
3 206 193 192
3 207 204 205
3 206 182 193
3 207 205 194
3 208 220 209
3 209 220 221
3 209 221 210
3 210 221 222
3 210 222 211
3 211 222 223
3 211 223 212
3 212 223 224
3 212 224 213
3 213 224 225
3 213 225 214
3 214 225 226
3 214 226 215
3 215 226 227
3 215 227 216
3 216 227 228
3 216 228 217
3 217 228 229
3 217 229 218
3 218 229 230
3 218 230 219
3 219 230 231
3 219 231 208
3 208 231 220
3 232 209 208
3 233 220 221
3 232 210 209
3 233 221 222
3 232 211 210
3 233 222 223
3 232 212 211
3 233 223 224
3 232 213 212
3 233 224 225
3 232 214 213
3 233 225 226
3 232 215 214
3 233 226 227
3 232 216 215
3 233 227 228
3 232 217 216
3 233 228 229
3 232 218 217
3 233 229 230
3 232 219 218
3 233 230 231
3 232 208 219
3 233 231 220
3 234 246 235
3 235 246 247
3 235 247 236
3 236 247 248
3 236 248 237
3 237 248 249
3 237 249 238
3 238 249 250
3 238 250 239
3 239 250 251
3 239 251 240
3 240 251 252
3 240 252 241
3 241 252 253
3 241 253 242
3 242 253 254
3 242 254 243
3 243 254 255
3 243 255 244
3 244 255 256
3 244 256 245
3 245 256 257
3 245 257 234
3 234 257 246
3 258 235 234
3 259 246 247
3 258 236 235
3 259 247 248
3 258 237 236
3 259 248 249
3 258 238 237
3 259 249 250
3 258 239 238
3 259 250 251
3 258 240 239
3 259 251 252
3 258 241 240
3 259 252 253
3 258 242 241
3 259 253 254
3 258 243 242
3 259 254 255
3 258 244 243
3 259 255 256
3 258 245 244
3 259 256 257
3 258 234 245
3 259 257 246
3 260 272 261
3 261 272 273
3 261 273 262
3 262 273 274
3 262 274 263
3 263 274 275
3 263 275 264
3 264 275 276
3 264 276 265
3 265 276 277
3 265 277 266
3 266 277 278
3 266 278 267
3 267 278 279
3 267 279 268
3 268 279 280
3 268 280 269
3 269 280 281
3 269 281 270
3 270 281 282
3 270 282 271
3 271 282 283
3 271 283 260
3 260 283 272
3 284 261 260
3 285 272 273
3 284 262 261
3 285 273 274
3 284 263 262
3 285 274 275
3 284 264 263
3 285 275 276
3 284 265 264
3 285 276 277
3 284 266 265
3 285 277 278
3 284 267 266
3 285 278 279
3 284 268 267
3 285 279 280
3 284 269 268
3 285 280 281
3 284 270 269
3 285 281 282
3 284 271 270
3 285 282 283
3 284 260 271
3 285 283 272
3 286 298 287
3 287 298 299
3 287 299 288
3 288 299 300
3 288 300 289
3 289 300 301
3 289 301 290
3 290 301 302
3 290 302 291
3 291 302 303
3 291 303 292
3 292 303 304
3 292 304 293
3 293 304 305
3 293 305 294
3 294 305 306
3 294 306 295
3 295 306 307
3 295 307 296
3 296 307 308
3 296 308 297
3 297 308 309
3 297 309 286
3 286 309 298
3 310 287 286
3 311 298 299
3 310 288 287
3 311 299 300
3 310 289 288
3 311 300 301
3 310 290 289
3 311 301 302
3 310 291 290
3 311 302 303
3 310 292 291
3 311 303 304
3 310 293 292
3 311 304 305
3 310 294 293
3 311 305 306
3 310 295 294
3 311 306 307
3 310 296 295
3 311 307 308
3 310 297 296
3 311 308 309
3 310 286 297
3 311 309 298
3 312 324 313
3 313 324 325
3 313 325 314
3 314 325 326
3 314 326 315
3 315 326 327
3 315 327 316
3 316 327 328
3 316 328 317
3 317 328 329
3 317 329 318
3 318 329 330
3 318 330 319
3 319 330 331
3 319 331 320
3 320 331 332
3 320 332 321
3 321 332 333
3 321 333 322
3 322 333 334
3 322 334 323
3 323 334 335
3 323 335 312
3 312 335 324
3 336 313 312
3 337 324 325
3 336 314 313
3 337 325 326
3 336 315 314
3 337 326 327
3 336 316 315
3 337 327 328
3 336 317 316
3 337 328 329
3 336 318 317
3 337 329 330
3 336 319 318
3 337 330 331
3 336 320 319
3 337 331 332
3 336 321 320
3 337 332 333
3 336 322 321
3 337 333 334
3 336 323 322
3 337 334 335
3 336 312 323
3 337 335 324
3 338 350 339
3 339 350 351
3 339 351 340
3 340 351 352
3 340 352 341
3 341 352 353
3 341 353 342
3 342 353 354
3 342 354 343
3 343 354 355
3 343 355 344
3 344 355 356
3 344 356 345
3 345 356 357
3 345 357 346
3 346 357 358
3 346 358 347
3 347 358 359
3 347 359 348
3 348 359 360
3 348 360 349
3 349 360 361
3 349 361 338
3 338 361 350
3 362 339 338
3 363 350 351
3 362 340 339
3 363 351 352
3 362 341 340
3 363 352 353
3 362 342 341
3 363 353 354
3 362 343 342
3 363 354 355
3 362 344 343
3 363 355 356
3 362 345 344
3 363 356 357
3 362 346 345
3 363 357 358
3 362 347 346
3 363 358 359
3 362 348 347
3 363 359 360
3 362 349 348
3 363 360 361
3 362 338 349
3 363 361 350
3 364 376 365
3 365 376 377
3 365 377 366
3 366 377 378
3 366 378 367
3 367 378 379
3 367 379 368
3 368 379 380
3 368 380 369
3 369 380 381
3 369 381 370
3 370 381 382
3 370 382 371
3 371 382 383
3 371 383 372
3 372 383 384
3 372 384 373
3 373 384 385
3 373 385 374
3 374 385 386
3 374 386 375
3 375 386 387
3 375 387 364
3 364 387 376
3 388 365 364
3 389 376 377
3 388 366 365
3 389 377 378
3 388 367 366
3 389 378 379
3 388 368 367
3 389 379 380
3 388 369 368
3 389 380 381
3 388 370 369
3 389 381 382
3 388 371 370
3 389 382 383
3 388 372 371
3 389 383 384
3 388 373 372
3 389 384 385
3 388 374 373
3 389 385 386
3 388 375 374
3 389 386 387
3 388 364 375
3 389 387 376
3 390 402 391
3 391 402 403
3 391 403 392
3 392 403 404
3 392 404 393
3 393 404 405
3 393 405 394
3 394 405 406
3 394 406 395
3 395 406 407
3 395 407 396
3 396 407 408
3 396 408 397
3 397 408 409
3 397 409 398
3 398 409 410
3 398 410 399
3 399 410 411
3 399 411 400
3 400 411 412
3 400 412 401
3 401 412 413
3 401 413 390
3 390 413 402
3 414 391 390
3 415 402 403
3 414 392 391
3 415 403 404
3 414 393 392
3 415 404 405
3 414 394 393
3 415 405 406
3 414 395 394
3 415 406 407
3 414 396 395
3 415 407 408
3 414 397 396
3 415 408 409
3 414 398 397
3 415 409 410
3 414 399 398
3 415 410 411
3 414 400 399
3 415 411 412
3 414 401 400
3 415 412 413
3 414 390 401
3 415 413 402
3 416 428 417
3 417 428 429
3 417 429 418
3 418 429 430
3 418 430 419
3 419 430 431
3 419 431 420
3 420 431 432
3 420 432 421
3 421 432 433
3 421 433 422
3 422 433 434
3 422 434 423
3 423 434 435
3 423 435 424
3 424 435 436
3 424 436 425
3 425 436 437
3 425 437 426
3 426 437 438
3 426 438 427
3 427 438 439
3 427 439 416
3 416 439 428
3 440 417 416
3 441 428 429
3 440 418 417
3 441 429 430
3 440 419 418
3 441 430 431
3 440 420 419
3 441 431 432
3 440 421 420
3 441 432 433
3 440 422 421
3 441 433 434
3 440 423 422
3 441 434 435
3 440 424 423
3 441 435 436
3 440 425 424
3 441 436 437
3 440 426 425
3 441 437 438
3 440 427 426
3 441 438 439
3 440 416 427
3 441 439 428
3 442 454 443
3 443 454 455
3 443 455 444
3 444 455 456
3 444 456 445
3 445 456 457
3 445 457 446
3 446 457 458
3 446 458 447
3 447 458 459
3 447 459 448
3 448 459 460
3 448 460 449
3 449 460 461
3 449 461 450
3 450 461 462
3 450 462 451
3 451 462 463
3 451 463 452
3 452 463 464
3 452 464 453
3 453 464 465
3 453 465 442
3 442 465 454
3 466 443 442
3 467 454 455
3 466 444 443
3 467 455 456
3 466 445 444
3 467 456 457
3 466 446 445
3 467 457 458
3 466 447 446
3 467 458 459
3 466 448 447
3 467 459 460
3 466 449 448
3 467 460 461
3 466 450 449
3 467 461 462
3 466 451 450
3 467 462 463
3 466 452 451
3 467 463 464
3 466 453 452
3 467 464 465
3 466 442 453
3 467 465 454
3 468 480 469
3 469 480 481
3 469 481 470
3 470 481 482
3 470 482 471
3 471 482 483
3 471 483 472
3 472 483 484
3 472 484 473
3 473 484 485
3 473 485 474
3 474 485 486
3 474 486 475
3 475 486 487
3 475 487 476
3 476 487 488
3 476 488 477
3 477 488 489
3 477 489 478
3 478 489 490
3 478 490 479
3 479 490 491
3 479 491 468
3 468 491 480
3 492 469 468
3 493 480 481
3 492 470 469
3 493 481 482
3 492 471 470
3 493 482 483
3 492 472 471
3 493 483 484
3 492 473 472
3 493 484 485
3 492 474 473
3 493 485 486
3 492 475 474
3 493 486 487
3 492 476 475
3 493 487 488
3 492 477 476
3 493 488 489
3 492 478 477
3 493 489 490
3 492 479 478
3 493 490 491
3 492 468 479
3 493 491 480
